<?xml version="1.0" encoding="utf-8"?>
<!-- Generator: Adobe Illustrator 20.1.0, SVG Export Plug-In . SVG Version: 6.00 Build 0)  -->
<svg version="1.1" id="Слой_1" xmlns="http://www.w3.org/2000/svg" xmlns:xlink="http://www.w3.org/1999/xlink" x="0px" y="0px"
	 viewBox="0 0 164.7 35" style="enable-background:new 0 0 164.7 35;" xml:space="preserve">
<style type="text/css">
	.st0{fill:#008AD1;}
	.st1{fill:#232E69;}
</style>
<g>
	<g>
		<path class="st0" d="M43.2,15v4.3h2.2c0.1-1.7,0.4-2.8,1-3.4c0.6-0.6,1.7-1,3.4-1c1.7,0,2.9,0.3,3.5,1c0.6,0.7,0.9,2,0.9,4
			c0,1.5-0.1,2.7-0.4,3.4c-0.3,0.8-0.7,1.3-1.4,1.6c-0.6,0.3-1.5,0.4-2.7,0.4c-1.7,0-2.9-0.3-3.4-0.8c-0.6-0.6-0.9-1.8-1-3.7h-2.2
			v4.4h-2V15H43.2z M47.5,20.2c0,1.1,0.1,1.9,0.2,2.4c0.1,0.5,0.4,0.8,0.7,1c0.3,0.1,0.8,0.2,1.5,0.2c0.7,0,1.2-0.1,1.5-0.2
			c0.3-0.2,0.6-0.5,0.7-1c0.1-0.5,0.2-1.3,0.2-2.4c0-1.1-0.1-1.9-0.2-2.4c-0.1-0.5-0.4-0.8-0.7-1c-0.3-0.1-0.8-0.2-1.5-0.2
			c-0.7,0-1.2,0.1-1.5,0.2c-0.3,0.2-0.6,0.5-0.7,1C47.5,18.2,47.5,19,47.5,20.2z"/>
		<path class="st0" d="M57.9,21.9v3.4h-2V15h4.4c1.4,0,2.3,0.2,2.9,0.6c0.6,0.5,1,1.4,1,2.7c0,1.4-0.3,2.3-0.8,2.8
			c-0.5,0.5-1.5,0.7-2.8,0.7H57.9z M57.9,16.7v3.6h2.4c0.7,0,1.2-0.1,1.4-0.3c0.3-0.2,0.4-0.7,0.4-1.3c0-0.7-0.1-1.2-0.4-1.5
			c-0.3-0.3-0.8-0.4-1.4-0.4H57.9z"/>
		<path class="st0" d="M65.8,15h7.2v1.6h-5.2v2.6h3.2c2,0,3,1,3,2.9c0,1-0.3,1.8-0.8,2.3c-0.5,0.5-1.2,0.8-2.2,0.8h-5.2V15z
			 M67.7,20.9v2.8h2.5c0.6,0,1.1-0.1,1.3-0.3c0.2-0.2,0.4-0.6,0.4-1.2c0-0.5-0.1-0.9-0.4-1.1c-0.2-0.2-0.6-0.2-1.3-0.2H67.7z"/>
		<path class="st0" d="M81.7,15h2.8v10.3h-2v-6.8c0-0.7,0.1-1.3,0.2-1.8h0l-4.3,8.6h-2.8V15h2v6.7c0,0.7-0.1,1.3-0.2,1.8h0L81.7,15z
			"/>
		<path class="st0" d="M88.8,20.8v-1.5h1.6c1.2,0,1.8-0.5,1.8-1.4c0-0.6-0.2-0.9-0.5-1.2c-0.3-0.2-0.9-0.3-1.7-0.3
			c-0.9,0-1.4,0.1-1.7,0.3c-0.3,0.2-0.4,0.6-0.4,1.3H86c0.1-1.2,0.4-2,1-2.5c0.6-0.4,1.6-0.6,3-0.6c2.7,0,4,0.9,4,2.6
			c0,0.7-0.1,1.3-0.3,1.6c-0.2,0.4-0.6,0.6-1.1,0.8V20c0.6,0.2,1.1,0.4,1.3,0.8c0.2,0.4,0.4,0.9,0.4,1.6c0,1.1-0.3,1.8-0.9,2.3
			c-0.6,0.5-1.8,0.7-3.4,0.7c-1.4,0-2.4-0.2-3-0.5c-0.7-0.4-1.1-1.2-1.1-2.4V22h1.9c0,0.7,0.1,1.2,0.3,1.4c0.3,0.3,0.9,0.4,1.9,0.4
			c0.9,0,1.5-0.1,1.9-0.3s0.5-0.6,0.5-1.2c0-1-0.6-1.5-1.7-1.5H88.8z"/>
		<path class="st0" d="M98,15v4.3h4.8V15h2v10.3h-2v-4.4H98v4.4h-2V15H98z"/>
		<path class="st0" d="M108.5,16.6v2.6h4.8v1.6h-4.8v2.8h5v1.6h-7V15h7v1.6H108.5z"/>
		<path class="st0" d="M121.5,21.6h1.9v0.6c0,1.2-0.3,2-0.9,2.5c-0.6,0.5-1.7,0.7-3.3,0.7c-1.7,0-2.8-0.4-3.4-1.1
			c-0.6-0.7-0.9-2.2-0.9-4.3c0-1.8,0.3-3.1,0.9-3.9c0.6-0.8,1.8-1.2,3.4-1.2c1.6,0,2.7,0.3,3.3,0.9c0.5,0.5,0.8,1.4,0.9,2.7h-1.9
			c0-0.8-0.2-1.3-0.5-1.5c-0.3-0.2-0.9-0.3-1.8-0.3c-0.9,0-1.5,0.2-1.8,0.7c-0.3,0.4-0.4,1.4-0.4,3c0,1.5,0.2,2.4,0.5,2.9
			c0.3,0.5,0.9,0.7,1.9,0.7c0.9,0,1.5-0.1,1.9-0.3c0.3-0.2,0.5-0.6,0.5-1.2V21.6z"/>
		<path class="st0" d="M125,15h6.7v1.7h-4.8v8.6h-2V15z"/>
		<path class="st0" d="M134.7,21.9v3.4h-2V15h4.4c1.4,0,2.3,0.2,2.9,0.6c0.6,0.5,1,1.4,1,2.7c0,1.4-0.3,2.3-0.8,2.8
			c-0.5,0.5-1.5,0.7-2.8,0.7H134.7z M134.7,16.7v3.6h2.4c0.7,0,1.2-0.1,1.4-0.3c0.3-0.2,0.4-0.7,0.4-1.3c0-0.7-0.1-1.2-0.4-1.5
			c-0.3-0.3-0.8-0.4-1.4-0.4H134.7z"/>
		<path class="st0" d="M149,15h2.3l-3.6,8c-0.4,0.9-0.8,1.5-1.3,1.9c-0.4,0.3-0.9,0.5-1.5,0.5c-0.4,0-0.8,0-1.2-0.1v-1.7
			c0.2,0,0.4,0.1,0.7,0.1c0.8,0,1.2-0.2,1.2-0.7c0-0.1,0-0.3-0.1-0.5l-3.5-7.6h2.4l2.1,5.2c0.1,0.3,0.2,0.8,0.3,1.4h0
			c0.1-0.6,0.2-1.1,0.4-1.5L149,15z"/>
		<path class="st0" d="M152.2,15h8.7v10.3h-2v-8.6h-4.8v8.6h-2V15z"/>
	</g>
	<g>
		<path class="st1" d="M50.3,28h0.5v2.4l2.4-2.4h0.6L52,29.8l1.8,2.3h-0.6l-1.6-2L50.8,31v1.1h-0.5V28z"/>
		<path class="st1" d="M54.4,30.1c0-1.1,0.8-2.1,2.1-2.1s2.1,1,2.1,2.1c0,1.1-0.9,2.1-2.1,2.1C55.2,32.2,54.4,31.2,54.4,30.1z
			 M58.1,30.1c0-0.9-0.7-1.7-1.6-1.7s-1.6,0.7-1.6,1.7c0,0.9,0.7,1.7,1.6,1.7S58.1,31,58.1,30.1z"/>
		<path class="st1" d="M59.7,28h0.5v1.8h2.4V28H63v4.1h-0.5v-1.8h-2.4v1.8h-0.5V28z"/>
		<path class="st1" d="M64.1,30.1c0-1.2,0.9-2.1,2.1-2.1c0.7,0,1.2,0.3,1.6,0.7L67.5,29c-0.3-0.3-0.7-0.6-1.3-0.6
			c-0.9,0-1.6,0.7-1.6,1.7c0,0.9,0.7,1.7,1.6,1.7c0.6,0,0.9-0.2,1.3-0.6l0.3,0.3c-0.4,0.4-0.9,0.7-1.6,0.7
			C65,32.2,64.1,31.3,64.1,30.1z"/>
		<path class="st1" d="M70.2,28h0.4l1.9,4.1H72l-0.5-1.1h-2.2l-0.5,1.1h-0.5L70.2,28z M71.3,30.6l-0.9-2.1l-0.9,2.1H71.3z"/>
		<path class="st1" d="M72.8,32.1l0.1-0.4c0.1,0,0.2,0.1,0.4,0.1c0.3,0,0.8-0.2,0.8-3V28h2.7v4.1h-0.5v-3.7h-1.7v0.4
			c0,2.9-0.6,3.3-1.2,3.3C73.2,32.2,72.9,32.1,72.8,32.1z"/>
		<path class="st1" d="M79.2,28.5h-1.4V28h3.2v0.4h-1.4v3.7h-0.5V28.5z"/>
		<path class="st1" d="M82.1,28h0.5v3.4L85,28h0.4v4.1H85v-3.4l-2.4,3.4h-0.5V28z"/>
		<path class="st1" d="M86.8,28h0.5v1.8h2.4V28h0.5v4.1h-0.5v-1.8h-2.4v1.8h-0.5V28z"/>
		<path class="st1" d="M91.4,28H94v0.4h-2.2v3.7h-0.5V28z"/>
		<path class="st1" d="M94.5,30.1c0-1.1,0.8-2.1,2.1-2.1c1.2,0,2.1,1,2.1,2.1c0,1.1-0.9,2.1-2.1,2.1C95.4,32.2,94.5,31.2,94.5,30.1z
			 M98.2,30.1c0-0.9-0.7-1.7-1.6-1.7S95,29.1,95,30.1c0,0.9,0.7,1.7,1.6,1.7S98.2,31,98.2,30.1z"/>
		<path class="st1" d="M99.9,28h1.7c0.5,0,0.8,0.1,1.1,0.4c0.2,0.2,0.3,0.4,0.3,0.7c0,0.5-0.3,0.8-0.7,0.9c0.5,0.1,0.9,0.4,0.9,1
			c0,0.7-0.6,1.1-1.5,1.1h-1.8V28z M101.5,29.9c0.6,0,0.9-0.3,0.9-0.7c0-0.4-0.3-0.7-0.9-0.7h-1.2v1.4H101.5z M101.7,31.7
			c0.6,0,1-0.3,1-0.7c0-0.4-0.4-0.7-1.1-0.7h-1.3v1.4H101.7z"/>
		<path class="st1" d="M105.7,28h0.4l1.9,4.1h-0.5l-0.5-1.1h-2.2l-0.5,1.1h-0.5L105.7,28z M106.8,30.6l-0.9-2.1l-0.9,2.1H106.8z"/>
		<path class="st1" d="M109.9,30.5c-0.7-0.1-1.1-0.5-1.1-1.2c0-0.3,0.1-0.6,0.3-0.8c0.3-0.3,0.7-0.4,1.2-0.4h1.8v4.1h-0.5v-1.6h-1.2
			l-1.2,1.6h-0.6L109.9,30.5z M111.6,30.2v-1.7h-1.3c-0.7,0-1.1,0.3-1.1,0.9c0,0.5,0.4,0.9,1.1,0.9H111.6z"/>
		<path class="st1" d="M115.3,28h0.5v2.4l2.4-2.4h0.6l-1.8,1.8l1.8,2.3h-0.6l-1.6-2l-0.9,0.9v1.1h-0.5V28z"/>
		<path class="st1" d="M119.3,30.1c0-1.1,0.8-2.1,2.1-2.1c1.2,0,2.1,1,2.1,2.1c0,1.1-0.9,2.1-2.1,2.1
			C120.2,32.2,119.3,31.2,119.3,30.1z M123,30.1c0-0.9-0.7-1.7-1.6-1.7s-1.6,0.7-1.6,1.7c0,0.9,0.7,1.7,1.6,1.7S123,31,123,30.1z"/>
		<path class="st1" d="M124.7,28h0.5l1.5,2.2l1.5-2.2h0.5v4.1h-0.5v-3.3l-1.5,2.2h0l-1.5-2.2v3.3h-0.5V28z"/>
		<path class="st1" d="M129.9,28h3.2v4.1h-0.5v-3.7h-2.3v3.7h-0.5V28z"/>
		<path class="st1" d="M136,28h0.4l1.9,4.1h-0.5l-0.5-1.1h-2.2l-0.5,1.1h-0.5L136,28z M137.1,30.6l-0.9-2.1l-0.9,2.1H137.1z"/>
		<path class="st1" d="M139.3,28h0.5v1.8h2.4V28h0.5v4.1h-0.5v-1.8h-2.4v1.8h-0.5V28z"/>
		<path class="st1" d="M143.9,28h0.5v3.4l2.4-3.4h0.4v4.1h-0.5v-3.4l-2.4,3.4h-0.5V28z"/>
		<path class="st1" d="M149.5,30.5c-0.7-0.1-1.1-0.5-1.1-1.2c0-0.3,0.1-0.6,0.3-0.8c0.3-0.3,0.7-0.4,1.2-0.4h1.8v4.1h-0.5v-1.6H150
			l-1.2,1.6h-0.6L149.5,30.5z M151.2,30.2v-1.7h-1.3c-0.7,0-1.1,0.3-1.1,0.9c0,0.5,0.4,0.9,1.1,0.9H151.2z"/>
	</g>
	<g>
		<g>
			<path class="st0" d="M6,25.8C6,25.7,6,25.7,6,25.8c0-0.5,0-1,0.1-1.4c0,0,0,0,0,0c0-0.2,0-0.4,0.1-0.6c0,0,0-0.1,0-0.1
				c0.1-0.4,0.1-0.8,0.2-1.2c0,0,0-0.1,0-0.1c0-0.2,0.1-0.3,0.1-0.5c0,0,0-0.1,0-0.1c0.1-0.4,0.2-0.7,0.3-1c0,0,0-0.1,0-0.1
				c0-0.1,0.1-0.2,0.1-0.4c0,0,0-0.1,0-0.1C7,19.9,7,19.8,7.1,19.6c0-0.1-0.2,0.8,0.5,2.4C7,18.8,8.4,17,8.9,16.3c0,0-0.3,1.3,0.2,2
				c-0.4-1.8,0.8-3.4,1.2-3.7c0,0-0.8,2.7-0.1,4.3c-0.4-5.2,5.2-8.2,7.3-9.3c0,0-0.4,0.5-0.2,1.6c0.1-1.6,1.9-2.5,1.9-2.5
				s-0.8,1.2-0.8,2.6c0.6-2.7,3.2-3.9,3.9-4.4c0,0-0.7,1.5-0.5,3.2c0-0.1,0-0.2,0-0.3c0,0,0-0.1,0-0.1c0-0.1,0-0.1,0-0.2
				c0,0,0-0.1,0-0.1c0-0.1,0-0.1,0.1-0.2c0,0,0-0.1,0-0.1c0-0.1,0-0.1,0.1-0.2c0,0,0-0.1,0.1-0.1c0-0.1,0-0.1,0.1-0.2
				c0,0,0-0.1,0.1-0.1c0,0,0.1-0.1,0.1-0.1c0,0,0-0.1,0.1-0.1c0,0,0.1-0.1,0.1-0.1c0,0,0-0.1,0.1-0.1c0,0,0.1-0.1,0.1-0.1
				c0,0,0.1-0.1,0.1-0.1c0,0,0.1-0.1,0.1-0.1c0.1-0.1,0.2-0.2,0.2-0.3c0,0,0,0,0-0.1c0.1-0.1,0.1-0.1,0.2-0.2c0,0,0,0,0,0
				c0.2-0.3,0.5-0.6,0.7-0.9c0,0,0,0,0,0c0.1-0.1,0.1-0.2,0.2-0.3c0,0,0,0,0,0c0.1-0.1,0.1-0.2,0.2-0.2c1-1.3,1.9-2.7,1.9-4.9
				C26,3.8,23.7,5,23.7,5c-2.1-1-4.4-1.6-6.9-1.6c-8.6,0-15.5,6.9-15.5,15.5c0,4.5,2,8.6,5.1,11.5c0,0,0,0,0,0
				C6.1,28.7,5.9,27.2,6,25.8z"/>
		</g>
		<path class="st1" d="M28.7,8.9c-0.3,1.1-1.4,2.7-2.9,4.3c1-0.4,1.8-0.8,1.8-0.8c0,1.4-2.8,6.6-6.5,7.3c3.3-0.5,5.1-2.3,5.1-2.3
			c-0.7,1.3-5.1,6.7-8.6,7c0.8,0.3,1.8,0.1,1.8,0.1c-1.4,0.9-2.8,1.5-4.1,1.6c1.3,0.2,4-0.8,4-0.8c-5.4,3.5-9.1-0.6-9.7,4.6
			C6,17.3,23,11,23,11s-16.7,5-15.4,17.9c0.4,3.9,4.5,5.5,9.1,5.5c8.6,0,15.5-6.9,15.5-15.5C32.3,15,30.9,11.6,28.7,8.9z"/>
	</g>
</g>
</svg>
